<svg xmlns="http://www.w3.org/2000/svg" width="94.188" height="119.867" viewBox="0 0 94.188 119.867">
  <g id="Layer_1" data-name="Layer 1" transform="translate(2.116 17.007)">
    <g id="_Group_" data-name="&lt;Group&gt;" transform="translate(-2.116 -17.007)">
      <g id="_Group_2" data-name="&lt;Group&gt;" transform="translate(0 0)">
        <g id="_Group_3" data-name="&lt;Group&gt;" transform="translate(40.332 37.036)">
          <path id="_Compound_Path_" data-name="&lt;Compound Path&gt;" d="M498.444,474.695c-.614.024-1.274.04-1.935.048-1.6.022-3.2.007-4.125.007a23.128,23.128,0,0,1-5.748-.81,16.012,16.012,0,0,1-4.9-2.176,22.36,22.36,0,0,1-4.429-3.944,48.114,48.114,0,0,1-4.368-5.929q-2.228-3.5-4.711-8.169t-5.434-10.66c-.336.337-1.693,1.5-2.153,2.045s-.942,1.114-1.444,1.7-.975,1.135-1.414,1.641-.785.9-1.037,1.2l-.032,17.162-10.335.477V418.1l10.3,1.052.068,21.162q1.885-2.208,4.586-5.456t5.528-6.592q2.831-3.342,5.436-6.339t4.3-4.826a35.972,35.972,0,0,1,4.114-3.816,16.878,16.878,0,0,1,3.645-2.176,13.461,13.461,0,0,1,3.738-.978,39.339,39.339,0,0,1,4.4-.22c.71,0,1.507.042,2.386.126a8.145,8.145,0,0,1,1.822.316v4.036h-.877a12.36,12.36,0,0,0-6.692,1.893,29.045,29.045,0,0,0-3.517,2.554q-1.857,1.546-4.116,3.816-2.452,2.46-5.15,5.425c-1.8,1.978-4.547,5.9-6.559,8.169,2.681,5.215,5.375,10.008,7.847,14.382a104.82,104.82,0,0,0,7.257,11.29,35.011,35.011,0,0,0,7.13,7.349,10.8,10.8,0,0,0,4.485,1.934,14.209,14.209,0,0,0,1.934.218" transform="translate(-446.38 -409.91)" fill="#fff"/>
        </g>
        <g id="_Group_4" data-name="&lt;Group&gt;" transform="translate(10.766 35.624)">
          <g id="_Group_5" data-name="&lt;Group&gt;">
            <path id="_Compound_Path_2" data-name="&lt;Compound Path&gt;" d="M146.928,461.59a30.322,30.322,0,0,1-12.847-2.468,21.832,21.832,0,0,1-8.608-6.987,30,30,0,0,1-4.806-10.8,60.014,60.014,0,0,1-1.507-13.975,38.192,38.192,0,0,1,1.477-11.091,31.1,31.1,0,0,1,3.987-8.558,26.68,26.68,0,0,1,5.876-6.251,33.6,33.6,0,0,1,7.066-4.166,34.7,34.7,0,0,1,7.6-2.308,42.312,42.312,0,0,1,7.539-.7q2.262,0,4.806.159c1.7.108,3.339.237,4.931.386s3.079.332,4.462.543,2.511.429,3.392.642l-2.449,9.36q-1.321-.385-3.74-.9t-5.183-.929q-2.765-.416-5.434-.706a43.214,43.214,0,0,0-4.492-.288q-2.01,0-3.517.128a17.216,17.216,0,0,0-2.764.448,13.811,13.811,0,0,0-2.42.865,13.54,13.54,0,0,0-2.355,1.444q-3.017,2.051-4.052,7.853a83.643,83.643,0,0,0-1.037,14.391q0,13.144,4.022,19.97t13,6.827q2.513,0,5.215-.192t5.371-.577q2.67-.384,5.213-.962a47.465,47.465,0,0,0,4.806-1.345v5.448a40.812,40.812,0,0,1-5.433,2.02q-2.922.863-6,1.474t-6.156.93A57.52,57.52,0,0,1,146.928,461.59Z" transform="translate(-119.16 -394.28)" fill="#fff"/>
          </g>
        </g>
        <path id="_Path_" data-name="&lt;Path&gt;" fill="#fff"/>
        <g id="crown_2_" data-name="crown 2 " transform="translate(76.002 21.541)">
          <path id="_Path_2" data-name="&lt;Path&gt;" d="M940.49,265.342h5.721l2.168-7.244-2.21,2.2c-.412.44-2.071,1.09-1.758-1.591l.192-1.247.16-1.353q-1.169,2.082-1.187,2.112c-.479.766-1.6,1.066-1.993-.67l-1.09-5.821V265.3Z" transform="translate(-931.516 -250.526)" fill="#fff"/>
          <path id="_Path_3" data-name="&lt;Path&gt;" d="M862.38,265.342H856.66l-2.17-7.244,2.211,2.2c.413.44,2.072,1.09,1.759-1.591l-.192-1.247-.16-1.353q1.167,2.082,1.186,2.112c.478.766,1.6,1.066,1.994-.67l1.088-5.821V265.3Z" transform="translate(-853.286 -250.526)" fill="#fff"/>
          <path id="_Path_4" data-name="&lt;Path&gt;" d="M1018.226,310.173a1.2,1.2,0,1,1-1.2-1.2A1.2,1.2,0,0,1,1018.226,310.173Z" transform="translate(-1000.04 -302.595)" fill="#fff"/>
          <path id="_Path_5" data-name="&lt;Path&gt;" d="M978.305,289.413a1.2,1.2,0,1,1-1.2-1.2A1.2,1.2,0,0,1,978.305,289.413Z" transform="translate(-963.727 -283.71)" fill="#fff"/>
          <path id="_Path_6" data-name="&lt;Path&gt;" d="M884.444,289.413a1.2,1.2,0,1,1-1.2-1.2A1.2,1.2,0,0,1,884.444,289.413Z" transform="translate(-878.347 -283.71)" fill="#fff"/>
          <path id="_Path_7" data-name="&lt;Path&gt;" d="M930.915,239.613a1.2,1.2,0,1,1-1.2-1.2A1.2,1.2,0,0,1,930.915,239.613Z" transform="translate(-920.619 -238.41)" fill="#fff"/>
          <path id="_Path_8" data-name="&lt;Path&gt;" d="M843.577,310.173a1.2,1.2,0,1,1-1.2-1.2A1.2,1.2,0,0,1,843.577,310.173Z" transform="translate(-841.17 -302.595)" fill="#fff"/>
        </g>
      </g>
      <text id="CLEVERKINGS_" data-name="CLEVERKINGS " transform="translate(14.038 116.867)" fill="#fff" font-size="13" font-family="SegoeUI, Segoe UI"><tspan x="0" y="0">CLEVERKINGS</tspan></text>
    </g>
  </g>
</svg>
